####
#
# OBJ File Generated by Meshlab
#
####
# Object cactus-2.obj
#
# Vertices: 28
# Faces: 13
#
####

vn 0.0000000 0.0000000 -1.0000000
v 0.2175430 -0.9958260 0.0000000 0.000000 0.666667 0.000000
vn 0.0000000 0.0000000 -1.0000000
v -0.2294980 -0.9958260 0.0000000 0.000000 0.666667 0.000000
vn 0.0000000 0.0000000 -1.0000000
v 0.2175430 0.0041740 -0.0000000 0.000000 0.666667 0.000000
vn 0.0000000 0.0000000 -1.0000000
v -0.2294980 0.0041740 0.0000000 0.000000 0.666667 0.000000
vn 0.0000000 0.0000000 -1.0000000
v 0.2147710 -0.0222770 -0.0000000 0.000000 0.666667 0.000000
vn 0.0000000 0.0000000 -1.0000000
v -0.2226660 -0.0222780 0.0000000 0.000000 0.666667 0.000000
vn 0.0000000 0.0000000 -1.0000000
v 0.2147710 0.9777230 -0.0000000 0.000000 0.666667 0.000000
vn 0.0000000 0.0000000 -1.0000000
v -0.2226660 0.9777230 -0.0000000 0.000000 0.666667 0.000000
vn 0.0000000 0.0000000 -1.0000000
v 0.6867330 0.2834570 -0.0000000 0.000000 0.666667 0.000000
vn 0.0000000 0.0000000 -1.0000000
v 0.1592870 0.2834570 -0.0000000 0.000000 0.666667 0.000000
vn 0.0000000 0.0000000 -1.0000000
v 0.6867330 0.5000000 -0.0000000 0.000000 0.666667 0.000000
vn 0.0000000 0.0000000 -1.0000000
v 0.1592870 0.5000000 -0.0000000 0.000000 0.666667 0.000000
vn 0.0000000 0.0000000 -1.0000000
v -0.0369540 -0.1108720 0.0000000 0.000000 0.666667 0.000000
vn 0.0000000 0.0000000 -1.0000000
v -0.6536470 -0.1108720 0.0000000 0.000000 0.666667 0.000000
vn 0.0000000 0.0000000 -1.0000000
v -0.0369540 0.1325900 -0.0000000 0.000000 0.666667 0.000000
vn 0.0000000 0.0000000 -1.0000000
v -0.6536470 0.1325900 0.0000000 0.000000 0.666667 0.000000
vn 0.0000000 0.0000000 -1.0000000
v 0.6435680 0.4495820 -0.0000000 0.333333 0.666667 0.000000
vn 0.0000000 0.0000000 -1.0000000
v 0.5435440 0.4495820 -0.0000000 0.333333 0.666667 0.000000
vn 0.0000000 0.0000000 -1.0000000
v 0.6435680 0.6724690 -0.0000000 0.333333 0.666667 0.000000
vn 0.0000000 0.0000000 -1.0000000
v 0.5435440 0.6724690 -0.0000000 0.333333 0.666667 0.000000
vn 0.0000000 0.0000000 -1.0000000
v -0.4738420 0.0753390 0.0000000 0.333333 0.666667 0.000000
vn 0.0000000 0.0000000 -1.0000000
v -0.5808030 0.0753390 0.0000000 0.333333 0.666667 0.000000
vn 0.0000000 0.0000000 -1.0000000
v -0.4738420 0.3497320 0.0000000 0.333333 0.666667 0.000000
vn 0.0000000 0.0000000 -1.0000000
v -0.5808030 0.3497320 0.0000000 0.333333 0.666667 0.000000
vn 0.0000000 0.0000000 -1.0000000
v -0.0666410 0.9602400 0.0325860 0.333333 0.666667 0.000000
vn 0.0000000 0.0000000 -1.0000000
v 0.0753820 0.9602400 0.0325860 0.333333 0.666667 0.000000
vn 0.0000000 0.0000000 -1.0000000
v -0.0666410 -0.9811270 0.0325860 0.333333 0.666667 0.000000
vn 0.0000000 0.0000000 -1.0000000
v 0.0753820 -0.9811280 0.0325860 0.333333 0.666667 0.000000
# 28 vertices, 0 vertices normals


vt 0.0000000 0.0000000
f 2/1/2 3/1/3 1/1/1
f 6/1/6 7/1/7 5/1/5
f 10/1/10 11/1/11 9/1/9
f 14/1/14 15/1/15 13/1/13
f 18/1/18 19/1/19 17/1/17
f 22/1/22 23/1/23 21/1/21
f 2/1/2 4/1/4 3/1/3
f 6/1/6 8/1/8 7/1/7
f 10/1/10 12/1/12 11/1/11
f 14/1/14 16/1/16 15/1/15
f 18/1/18 20/1/20 19/1/19
f 22/1/22 24/1/24 23/1/23
f 26/1/26 28/1/28 27/1/27 
f 26/1/26 27/1/27 25/1/25

# 13 faces, 1 coords texture

# End of File
